<svg xmlns="http://www.w3.org/2000/svg" xmlns:xlink="http://www.w3.org/1999/xlink" width="1920" zoomAndPan="magnify" viewBox="0 0 1440 809.999993" height="1080" preserveAspectRatio="xMidYMid meet" version="1.0"><defs><clipPath id="ed6fff6804"><path d="M 558 243 L 882 243 L 882 567 L 558 567 Z M 558 243 " clip-rule="nonzero"/></clipPath></defs><g clip-path="url(#ed6fff6804)"><path fill="#ffffff" d="M 806.765625 419.097656 C 806.65625 419.109375 806.546875 419.109375 806.433594 419.109375 C 803.535156 419.109375 801.101562 416.84375 800.929688 413.910156 C 799.601562 391.480469 790.363281 370.15625 774.929688 353.867188 C 759.492188 337.582031 738.691406 327.21875 716.359375 324.695312 C 713.328125 324.351562 711.152344 321.617188 711.496094 318.585938 C 711.835938 315.558594 714.582031 313.363281 717.605469 313.71875 C 742.515625 316.535156 765.71875 328.097656 782.945312 346.269531 C 800.171875 364.441406 810.472656 388.234375 811.953125 413.261719 C 812.132812 416.304688 809.8125 418.921875 806.765625 419.097656 Z M 714.882812 353.582031 C 715.226562 350.558594 717.945312 348.390625 720.996094 348.71875 C 735.828125 350.398438 749.652344 357.285156 759.90625 368.105469 C 770.164062 378.929688 776.300781 393.097656 777.183594 408 C 777.363281 411.046875 775.042969 413.660156 771.996094 413.839844 C 771.886719 413.847656 771.773438 413.847656 771.664062 413.847656 C 768.765625 413.847656 766.328125 411.589844 766.160156 408.65625 C 765.429688 396.34375 760.359375 384.644531 751.890625 375.707031 C 743.421875 366.769531 732.007812 361.082031 719.746094 359.691406 C 716.722656 359.355469 714.542969 356.613281 714.882812 353.582031 Z M 797.878906 490.335938 C 797.714844 490.503906 791.300781 496.566406 791.128906 496.734375 C 779.253906 508.152344 760.59375 510.417969 745.105469 506.789062 C 739.453125 505.46875 733.945312 503.566406 728.621094 501.257812 C 704.59375 490.816406 681.800781 472.34375 663.496094 452.921875 C 645.078125 433.597656 627.855469 409.855469 618.71875 385.304688 C 616.691406 379.859375 615.089844 374.257812 614.066406 368.542969 C 611.273438 352.882812 614.535156 334.375 626.574219 323.128906 C 626.75 322.957031 633.144531 316.882812 633.324219 316.726562 C 645.25 306.253906 655.445312 319.539062 664.953125 329.746094 C 673.074219 338.464844 686.71875 352.820312 684.449219 365.929688 C 683.195312 373.210938 675.460938 378.535156 672.773438 385.675781 C 669.347656 394.78125 670.964844 403.851562 676.710938 411.640625 C 680.5625 416.851562 685.25 422.402344 690.253906 427.558594 C 695.132812 432.828125 700.425781 437.8125 705.425781 441.929688 C 712.894531 448.089844 721.863281 450.191406 731.144531 447.253906 C 738.414062 444.953125 744.140625 437.515625 751.480469 436.648438 C 764.691406 435.085938 778.296875 449.484375 786.570312 458.058594 C 796.253906 468.097656 808.976562 478.984375 797.878906 490.335938 Z M 719.996094 242.949219 C 630.535156 242.949219 558.007812 315.476562 558.007812 404.941406 C 558.007812 494.40625 630.535156 566.929688 719.996094 566.929688 C 809.464844 566.929688 881.984375 494.40625 881.984375 404.941406 C 881.984375 315.476562 809.464844 242.949219 719.996094 242.949219 " fill-opacity="1" fill-rule="nonzero"/></g></svg>